<?xml version="1.0" encoding="UTF-8" standalone="no"?>
<svg
   width="268.24mm"
   height="112.16mm"
   viewBox="0 0 268.24 112.16"
   version="1.1"
   preserveAspectRatio="xMidYMid meet"
   id="svg16"
   sodipodi:docname="box_tinyturner_blank.svg"
   inkscape:version="1.1.1 (c3084ef, 2021-09-22)"
   inkscape:label="fingerhole"
   xmlns:inkscape="http://www.inkscape.org/namespaces/inkscape"
   xmlns:sodipodi="http://sodipodi.sourceforge.net/DTD/sodipodi-0.dtd"
   xmlns="http://www.w3.org/2000/svg"
   xmlns:svg="http://www.w3.org/2000/svg">
  <defs
     id="defs20" />
  <sodipodi:namedview
     id="namedview18"
     pagecolor="#ffffff"
     bordercolor="#666666"
     borderopacity="1.0"
     inkscape:pageshadow="2"
     inkscape:pageopacity="0.0"
     inkscape:pagecheckerboard="0"
     inkscape:document-units="mm"
     showgrid="true"
     inkscape:snap-grids="true"
     inkscape:snap-to-guides="true"
     showguides="false"
     inkscape:zoom="1.6776246"
     inkscape:cx="503.68837"
     inkscape:cy="202.96555"
     inkscape:window-width="1892"
     inkscape:window-height="1067"
     inkscape:window-x="-38"
     inkscape:window-y="309"
     inkscape:window-maximized="0"
     inkscape:current-layer="svg16">
    <inkscape:grid
       type="xygrid"
       id="grid499"
       units="mm"
       spacingx="0.99999999"
       spacingy="0.99999999" />
  </sodipodi:namedview>
  <g
     id="svgGroup"
     stroke-linecap="round"
     fill-rule="evenodd"
     font-size="12px"
     stroke="#000"
     stroke-width="0.25mm"
     fill="none"
     style="display:inline;fill:none;stroke:#000000;stroke-width:0.25mm">
    <path
       d="m 106.08,98.666 v 13.471 l -0.023,0.023 h -6.721 l -0.023,-0.023 v -2.977 h -7.045 v 2.977 l -0.024,0.023 h -7.158 l -0.023,-0.023 v -2.977 h -7.045 v 2.977 l -0.024,0.023 h -7.158 l -0.023,-0.023 v -2.977 h -7.045 v 2.977 l -0.024,0.023 h -7.158 l -0.023,-0.023 v -2.977 h -7.045 v 2.977 l -0.024,0.023 h -7.158 l -0.023,-0.023 v -2.977 h -7.045 v 2.977 l -0.024,0.023 h -7.158 l -0.023,-0.023 v -2.977 h -7.045 v 2.977 l -0.024,0.023 h -7.158 l -0.023,-0.023 V 109.16 H 6.767 v 2.977 L 6.744,112.16 H 0.023 L 0,112.137 v -6.346 l 0.023,-0.023 H 3 V 98.723 H 0.023 L 0,98.699 V 91.541 L 0.023,91.518 H 3 V 84.473 H 0.023 L 0,84.449 V 78.103 L 0.023,78.08 h 6.721 l 0.023,0.023 v 2.977 h 7.046 v -2.977 l 0.023,-0.023 h 7.158 l 0.024,0.023 v 2.977 h 7.045 v -2.977 l 0.023,-0.023 h 7.158 l 0.024,0.023 v 2.977 h 7.045 v -2.977 l 0.023,-0.023 h 7.158 l 0.024,0.023 v 2.977 h 7.045 v -2.977 l 0.023,-0.023 h 7.158 l 0.024,0.023 v 2.977 h 7.045 v -2.977 l 0.023,-0.023 h 7.158 l 0.024,0.023 v 2.977 h 7.045 v -2.977 l 0.023,-0.023 h 7.158 l 0.024,0.023 v 2.977 h 7.045 v -2.977 l 0.023,-0.023 h 6.721 l 0.023,0.023 v 6.346 l -0.023,0.024 h -2.977 v 7.045 h 2.977 l 0.023,0.023 m 0,-7.125 v 14.283 l -0.023,0.024 h -2.977 v 7.045 h 2.977 l 0.023,0.023"
       id="front_outsideCutPath"
       stroke="#FF0000"
       stroke-width="0.1"
       style="stroke:#ff0000;stroke-width:0.1"
       vector-effect="non-scaling-stroke" />
    <circle
       style="fill:none;fill-rule:evenodd;stroke:#ff0000;stroke-width:0.507118;stroke-opacity:1"
       id="circle1390"
       cx="245.2377"
       cy="96.15139"
       r="5.75" />
    <circle
       style="display:inline;fill:none;fill-rule:evenodd;stroke:#ff0000;stroke-width:0.507118;stroke-opacity:1"
       id="path1176"
       cx="185.35362"
       cy="96.151398"
       r="5.75" />
    <rect
       style="display:none;fill:#0000ff;fill-rule:evenodd;stroke-width:0.291659"
       id="rect1448"
       width="60"
       height="24.302773"
       x="185.2"
       y="84.000008"
       rx="2.7755586e-17" />
    <path
       d="m 162.16,94.791 v 11.033 l -0.023,0.024 h -2.977 v 6.289 l -0.023,0.023 h -7.221 l -0.023,-0.023 v -2.977 h -7.045 v 2.977 l -0.024,0.023 h -7.158 l -0.023,-0.023 v -2.977 h -7.045 v 2.977 l -0.024,0.023 h -7.158 l -0.023,-0.023 v -2.977 h -7.045 v 2.977 l -0.024,0.023 h -7.221 l -0.023,-0.023 v -6.289 h -2.977 l -0.023,-0.024 m 0,-21.408 0.023,-0.023 h 2.977 v -6.29 l 0.023,-0.023 h 7.221 l 0.024,0.023 v 2.977 h 7.045 v -2.977 l 0.023,-0.023 h 7.158 l 0.024,0.023 v 2.977 h 7.045 v -2.977 l 0.023,-0.023 h 7.158 l 0.024,0.023 v 2.977 h 7.045 v -2.977 l 0.023,-0.023 h 7.221 l 0.023,0.023 v 6.29 h 2.977 l 0.023,0.023 m 0,-3.875 v 11.033 l -0.023,0.024 h -2.977 v 7.045 h 2.977 l 0.023,0.023 m -56.08,0 0.023,-0.023 h 2.977 v -7.045 h -2.977 l -0.023,-0.024"
       id="left_outsideCutPath"
       stroke="#FF0000"
       stroke-width="0.1"
       style="stroke:#ff0000;stroke-width:0.1"
       vector-effect="non-scaling-stroke" />
    <path
       d="m 162.16,66.291 0.023,-0.023 h 2.977 v -7.165 l 0.023,-0.023 h 3.665 v -2.977 l 0.023,-0.023 h 7.158 l 0.023,0.023 v 2.977 h 7.046 v -2.977 l 0.023,-0.023 h 7.158 l 0.023,0.023 v 2.977 h 7.046 v -2.977 l 0.023,-0.023 h 7.158 l 0.023,0.023 v 2.977 h 7.046 v -2.977 l 0.023,-0.023 h 7.158 l 0.023,0.023 v 2.977 h 7.046 v -2.977 l 0.023,-0.023 h 7.158 l 0.023,0.023 v 2.977 h 7.046 v -2.977 l 0.023,-0.023 h 7.158 l 0.023,0.023 v 2.977 h 7.046 v -2.977 l 0.023,-0.023 h 7.158 l 0.024,0.023 v 2.977 h 3.664 l 0.023,0.023 v 7.165 h 2.977 l 0.023,0.023 v 7.158 l -0.023,0.024 h -2.977 v 7.045 h 2.977 l 0.023,0.023 v 7.158 l -0.023,0.024 h -2.977 v 7.045 h 2.977 l 0.023,0.023 v 7.158 l -0.023,0.024 h -2.977 v 7.164 l -0.023,0.023 h -3.664 v 2.977 l -0.024,0.023 h -7.158 l -0.023,-0.023 v -2.977 h -7.046 v 2.977 l -0.023,0.023 h -7.158 l -0.023,-0.023 v -2.977 h -7.046 v 2.977 l -0.023,0.023 h -7.158 l -0.023,-0.023 v -2.977 h -7.046 v 2.977 l -0.023,0.023 h -7.158 l -0.023,-0.023 v -2.977 h -7.046 v 2.977 l -0.023,0.023 h -7.158 l -0.023,-0.023 v -2.977 h -7.046 v 2.977 l -0.023,0.023 h -7.158 l -0.023,-0.023 v -2.977 h -7.046 v 2.977 l -0.023,0.023 h -7.158 l -0.023,-0.023 v -2.977 h -3.665 l -0.023,-0.023 v -7.164 h -2.977 l -0.023,-0.024 m 0,-37.363 v 8.863 l 0.023,0.024 h 2.977 v 7.045 h -2.977 l -0.023,0.023 m 0,14.25 0.023,-0.023 h 2.977 v -7.045 h -2.977 l -0.023,-0.024"
       id="top_outsideCutPath"
       stroke="#FF0000"
       stroke-width="0.1"
       style="stroke:#ff0000;stroke-width:0.1"
       vector-effect="non-scaling-stroke" />
    <path
       d="M 0.023,78.08 0,78.057 V 71.711 L 0.023,71.688 H 3 V 64.643 H 0.023 L 0,64.619 V 57.461 L 0.023,57.438 H 3 V 50.393 H 0.023 L 0,50.369 V 44.023 L 0.023,44 h 6.721 l 0.023,0.023 V 47 h 7.046 V 44.023 L 13.836,44 h 7.158 l 0.024,0.023 V 47 h 7.045 V 44.023 L 28.086,44 h 7.158 l 0.024,0.023 V 47 h 7.045 V 44.023 L 42.336,44 h 7.158 l 0.024,0.023 V 47 h 7.045 V 44.023 L 56.586,44 h 7.158 l 0.024,0.023 V 47 h 7.045 V 44.023 L 70.836,44 h 7.158 l 0.024,0.023 V 47 h 7.045 V 44.023 L 85.086,44 h 7.158 l 0.024,0.023 V 47 h 7.045 V 44.023 L 99.336,44 h 6.721 l 0.023,0.023 v 6.346 l -0.023,0.024 h -2.977 v 7.045 h 2.977 l 0.023,0.023 m 0,-7.125 v 14.283 l -0.023,0.024 h -2.977 v 7.045 h 2.977 l 0.023,0.023 m 0,-7.125 v 13.471 l -0.023,0.023 m -92.221,0 -0.023,-0.023 V 75.08 H 6.767 v 2.977 L 6.744,78.08 m 21.342,0 -0.023,-0.023 V 75.08 h -7.045 v 2.977 l -0.024,0.023 m 21.342,0 -0.023,-0.023 V 75.08 h -7.045 v 2.977 l -0.024,0.023 m 21.342,0 -0.023,-0.023 V 75.08 h -7.045 v 2.977 l -0.024,0.023 m 35.592,0 -0.023,-0.023 V 75.08 h -7.045 v 2.977 l -0.024,0.023 m 21.342,0 -0.023,-0.023 V 75.08 h -7.045 v 2.977 l -0.024,0.023 m -21.408,0 -0.023,-0.023 V 75.08 h -7.045 v 2.977 l -0.024,0.023"
       id="back_outsideCutPath"
       stroke="#FF0000"
       stroke-width="0.1"
       style="stroke:#ff0000;stroke-width:0.1"
       vector-effect="non-scaling-stroke" />
    <path
       d="m 106.08,50.336 0.023,-0.023 h 2.977 v -6.29 L 109.103,44 h 7.221 l 0.024,0.023 V 47 h 7.045 V 44.023 L 123.416,44 h 7.158 l 0.024,0.023 V 47 h 7.045 V 44.023 L 137.666,44 h 7.158 l 0.024,0.023 V 47 h 7.045 V 44.023 L 151.916,44 h 7.221 l 0.023,0.023 v 6.29 h 2.977 l 0.023,0.023 v 7.158 l -0.023,0.024 h -2.977 v 7.045 h 2.977 l 0.023,0.023 M 123.416,78.08 123.393,78.057 V 75.08 h -7.045 v 2.977 l -0.024,0.023 m 21.342,0 -0.023,-0.023 V 75.08 h -7.045 v 2.977 l -0.024,0.023 m 21.342,0 -0.023,-0.023 V 75.08 h -7.045 v 2.977 l -0.024,0.023 m -38.744,-13.494 0.023,-0.023 h 2.977 v -7.045 h -2.977 l -0.023,-0.024 m 56.08,14.25 -0.023,0.024 h -2.977 v 6.289 l -0.023,0.023 m -50.034,0 -0.023,-0.023 v -6.289 h -2.977 l -0.023,-0.024"
       id="right_outsideCutPath"
       stroke="#FF0000"
       stroke-width="0.1"
       style="stroke:#ff0000;stroke-width:0.1"
       vector-effect="non-scaling-stroke" />
    <path
       d="m 168.871,56.08 -0.023,-0.023 V 53.08 h -3.665 l -0.023,-0.023 v -7.165 h -2.977 l -0.023,-0.023 v -7.158 l 0.023,-0.023 h 2.977 v -7.045 h -2.977 l -0.023,-0.024 v -7.158 l 0.023,-0.024 h 2.977 v -7.045 h -2.977 l -0.023,-0.023 v -7.158 l 0.023,-0.023 h 2.977 V 3.023 L 165.183,3 h 3.665 V 0.023 L 168.871,0 h 7.158 l 0.023,0.023 V 3 h 7.046 V 0.023 L 183.121,0 h 7.158 l 0.023,0.023 V 3 h 7.046 V 0.023 L 197.371,0 h 7.158 l 0.023,0.023 V 3 h 7.046 V 0.023 L 211.621,0 h 7.158 l 0.023,0.023 V 3 h 7.046 V 0.023 L 225.871,0 h 7.158 l 0.023,0.023 V 3 h 7.046 V 0.023 L 240.121,0 h 7.158 l 0.023,0.023 V 3 h 7.046 V 0.023 L 254.371,0 h 7.158 l 0.024,0.023 V 3 h 3.664 l 0.023,0.023 v 7.165 h 2.977 l 0.023,0.023 v 7.158 l -0.023,0.023 h -2.977 v 7.045 h 2.977 l 0.023,0.024 v 7.158 l -0.023,0.024 h -2.977 v 7.045 h 2.977 l 0.023,0.023 v 7.158 l -0.023,0.023 h -2.977 v 7.165 l -0.023,0.023 h -3.664 v 2.977 l -0.024,0.023 m -78.408,0 -0.023,-0.023 V 53.08 h -7.046 v 2.977 l -0.023,0.023 m 21.342,0 -0.023,-0.023 V 53.08 h -7.046 v 2.977 l -0.023,0.023 m 21.342,0 -0.023,-0.023 V 53.08 h -7.046 v 2.977 l -0.023,0.023 m 21.342,0 -0.023,-0.023 V 53.08 h -7.046 v 2.977 l -0.023,0.023 m 21.342,0 -0.023,-0.023 V 53.08 h -7.046 v 2.977 l -0.023,0.023 m 21.342,0 -0.023,-0.023 V 53.08 h -7.046 v 2.977 l -0.023,0.023"
       id="bottom_outsideCutPath"
       stroke="#FF0000"
       stroke-width="0.1"
       style="stroke:#ff0000;stroke-width:0.1"
       vector-effect="non-scaling-stroke" />
  </g>
  <path
     style="display:none;fill:none;stroke:#000000;stroke-width:0.264583px;stroke-linecap:butt;stroke-linejoin:miter;stroke-opacity:1"
     d="m 182.5625,93.927082 v 1.322917 l -1.32292,10e-7"
     id="path1059" />
  <circle
     style="display:none;fill:#ff0000;fill-rule:evenodd;stroke-width:0.366299"
     id="path1176-4"
     cx="186.74998"
     cy="125.5"
     r="0" />
  <circle
     style="fill:none;fill-rule:evenodd;stroke-width:0.264583;stroke:#ff0000;stroke-opacity:1"
     id="path1987"
     cx="215.2"
     cy="28.040001"
     r="8"
     inkscape:label="fingerhole" />
  <ellipse
     style="fill:none;fill-rule:evenodd;stroke-width:0.38999;stroke:#ff0000;stroke-opacity:1"
     id="path2091"
     cx="134.11073"
     cy="108.94042"
     rx="3.5350516"
     ry="3.8411939" />
</svg>
